G04 EAGLE Gerber RS-274X export*
G75*
%MOMM*%
%FSLAX34Y34*%
%LPD*%
%INSolder stop mask SOL*%
%IPPOS*%
%AMOC8*
5,1,8,0,0,1.08239X$1,22.5*%
G01*
%ADD10C,1.203200*%
%ADD11C,2.082800*%
%ADD12C,1.524000*%
%ADD13R,2.235200X2.235200*%
%ADD14C,2.235200*%
%ADD15C,2.184400*%
%ADD16P,1.649562X8X22.500000*%
%ADD17C,1.511200*%
%ADD18C,4.521200*%
%ADD19C,1.854200*%
%ADD20R,1.854200X1.854200*%
%ADD21P,1.649562X8X112.500000*%
%ADD22P,1.649562X8X292.500000*%
%ADD23C,1.879600*%
%ADD24R,2.616200X2.616200*%
%ADD25C,2.616200*%
%ADD26P,1.951982X8X22.500000*%
%ADD27C,1.524000*%
%ADD28P,1.649562X8X202.500000*%
%ADD29C,0.959600*%
%ADD30C,1.320800*%


D10*
X876300Y939800D03*
X876300Y25400D03*
X25400Y25400D03*
X25400Y533400D03*
D11*
X25400Y165100D03*
X25400Y190500D03*
X25400Y215900D03*
X25400Y241300D03*
X25400Y266700D03*
X25400Y292100D03*
X25400Y342900D03*
X25400Y368300D03*
X25400Y393700D03*
X25400Y419100D03*
X25400Y444500D03*
X25400Y469900D03*
X508000Y469900D03*
X508000Y444500D03*
X508000Y419100D03*
X508000Y393700D03*
X508000Y368300D03*
X508000Y342900D03*
X508000Y317500D03*
X508000Y292100D03*
X508000Y251460D03*
X508000Y226060D03*
X508000Y200660D03*
X508000Y175260D03*
X508000Y149860D03*
X508000Y124460D03*
X508000Y99060D03*
X508000Y73660D03*
X508000Y48260D03*
X508000Y22860D03*
X25400Y139700D03*
X25400Y114300D03*
X304300Y471300D03*
X304300Y496700D03*
X278900Y471300D03*
X253500Y471300D03*
X278900Y496700D03*
X253500Y496700D03*
D12*
X622300Y279400D03*
X647700Y279400D03*
X647700Y355600D03*
X622300Y355600D03*
X673100Y279400D03*
X698500Y279400D03*
X673100Y355600D03*
X698500Y355600D03*
D11*
X558800Y355600D03*
X584200Y355600D03*
X558800Y330200D03*
X584200Y330200D03*
X558800Y304800D03*
X584200Y304800D03*
D13*
X406400Y901700D03*
D14*
X371400Y901700D03*
D13*
X495300Y901700D03*
D14*
X460300Y901700D03*
D15*
X165100Y594106D02*
X165100Y574294D01*
X240030Y574294D02*
X240030Y594106D01*
X165100Y774192D02*
X165100Y794004D01*
X240030Y809244D02*
X240030Y829056D01*
X25400Y594106D02*
X25400Y574294D01*
X100330Y574294D02*
X100330Y594106D01*
X25400Y774192D02*
X25400Y794004D01*
X100330Y809244D02*
X100330Y829056D01*
D16*
X622300Y622300D03*
X673100Y622300D03*
X622300Y596900D03*
X673100Y596900D03*
D17*
X698500Y165100D03*
X698500Y190500D03*
X698500Y215900D03*
D18*
X596900Y98900D03*
X596900Y38900D03*
X643900Y68900D03*
D19*
X571700Y165100D03*
D20*
X596700Y165100D03*
D15*
X840994Y673100D02*
X860806Y673100D01*
X860806Y748030D02*
X840994Y748030D01*
X660908Y673100D02*
X641096Y673100D01*
X625856Y748030D02*
X606044Y748030D01*
X444500Y594106D02*
X444500Y574294D01*
X519430Y574294D02*
X519430Y594106D01*
X444500Y774192D02*
X444500Y794004D01*
X519430Y809244D02*
X519430Y829056D01*
D21*
X571500Y800100D03*
X571500Y850900D03*
D22*
X571500Y774700D03*
X571500Y723900D03*
D23*
X127000Y419100D03*
X127000Y520700D03*
X88900Y419100D03*
X88900Y520700D03*
X850900Y406400D03*
X850900Y304800D03*
X812800Y406400D03*
X812800Y304800D03*
D13*
X711200Y25400D03*
D14*
X746200Y25400D03*
D23*
X457200Y368300D03*
X355600Y368300D03*
X457200Y266700D03*
X355600Y266700D03*
X457200Y165100D03*
X355600Y165100D03*
D24*
X127000Y901700D03*
D25*
X77000Y901700D03*
X27000Y901700D03*
D13*
X584200Y901700D03*
D14*
X549200Y901700D03*
D24*
X304800Y901700D03*
D25*
X254800Y901700D03*
X204800Y901700D03*
D15*
X304800Y594106D02*
X304800Y574294D01*
X379730Y574294D02*
X379730Y594106D01*
X304800Y774192D02*
X304800Y794004D01*
X379730Y809244D02*
X379730Y829056D01*
D23*
X850900Y177800D03*
X850900Y279400D03*
X800100Y25400D03*
X800100Y127000D03*
D26*
X838200Y927100D03*
X838200Y901700D03*
X838200Y876300D03*
X622300Y927100D03*
X622300Y901700D03*
X622300Y876300D03*
D27*
X711200Y584708D02*
X711200Y571500D01*
X685800Y571500D02*
X685800Y584708D01*
X685800Y495300D02*
X685800Y482092D01*
X711200Y482092D02*
X711200Y495300D01*
D28*
X596900Y215900D03*
X571500Y215900D03*
D22*
X685800Y114300D03*
X685800Y88900D03*
D29*
X444500Y469900D03*
X177800Y215900D03*
X101600Y152400D03*
X254000Y444500D03*
X228600Y304800D03*
X50800Y342900D03*
X431800Y177800D03*
X647700Y203200D03*
X635000Y241300D03*
X711200Y254000D03*
X812800Y254000D03*
X825500Y342900D03*
X736600Y419100D03*
X762000Y355600D03*
X876300Y203200D03*
X736600Y203200D03*
X838200Y38100D03*
X812800Y609600D03*
X406400Y584200D03*
X533400Y317500D03*
X190500Y330200D03*
X723900Y342900D03*
X533400Y393700D03*
X622300Y330200D03*
X622300Y304800D03*
X127000Y228600D03*
D30*
X660400Y457200D03*
X469563Y152737D03*
X747344Y281356D03*
X558800Y444500D03*
X584200Y414593D03*
X723900Y317500D03*
X481838Y393700D03*
X736600Y241300D03*
X457200Y76200D03*
X596900Y279400D03*
X736600Y215900D03*
X486410Y190500D03*
X736600Y190500D03*
X738406Y267448D03*
X599569Y368300D03*
X482600Y114300D03*
X736600Y165100D03*
X190500Y241300D03*
X812800Y152400D03*
X190500Y381000D03*
X228600Y381000D03*
M02*
