M48
;GenerationSoftware,Autodesk,EAGLE,9.3.0*%
;CreationDate,2019-03-22T12:23:10Z*%
FMAT,2
ICI,OFF
METRIC,TZ,000.000
T13C0.350
T12C0.700
T11C0.711
T10C0.800
T9C0.813
T8C0.914
T7C1.000
T6C1.016
T5C1.118
T4C1.200
T3C1.300
T2C1.321
T1C2.997
%
G90
M71
T1
X59690Y3890
X59690Y9890
X64390Y6890
T2
X24003Y58420
X16510Y58420
X10033Y81915
X2540Y78410
X10033Y58420
X2540Y58420
X24003Y81915
X37973Y81915
X30480Y78410
X37973Y58420
X30480Y58420
X16510Y78410
X85090Y67310
X85090Y74803
X65100Y67310
X61595Y74803
X44450Y58420
X51943Y58420
X44450Y78410
X51943Y81915
T3
X20480Y90170
X25480Y90170
X30480Y90170
X2700Y90170
X7700Y90170
X12700Y90170
T4
X71120Y2540
X74620Y2540
X49530Y90170
X58420Y90170
X46030Y90170
X54920Y90170
X40640Y90170
X37140Y90170
T5
X81280Y30480
X81280Y40640
X85090Y30480
X85090Y40640
X8890Y52070
X8890Y41910
X12700Y52070
X12700Y41910
X35560Y36830
X45720Y26670
X35560Y26670
X45720Y16510
X35560Y16510
X85090Y17780
X85090Y27940
X80010Y2540
X80010Y12700
X45720Y36830
T6
X2540Y26670
X2540Y29210
X2540Y34290
X2540Y36830
X2540Y39370
X2540Y41910
X2540Y44450
X2540Y46990
X50800Y46990
X50800Y44450
X50800Y41910
X50800Y39370
X50800Y36830
X50800Y34290
X50800Y31750
X50800Y29210
X50800Y25146
X50800Y22606
X50800Y20066
X50800Y17526
X50800Y14986
X50800Y12446
X50800Y9906
X50800Y7366
X50800Y4826
X50800Y2286
X2540Y13970
X2540Y11430
X30430Y47130
X30430Y49670
X27890Y47130
X25350Y47130
X27890Y49670
X25350Y49670
X2540Y24130
X2540Y21590
X2540Y19050
X2540Y16510
X58420Y30480
X55880Y30480
X58420Y33020
X55880Y33020
X55880Y35560
X58420Y35560
T7
X87630Y93980
X87630Y2540
X2540Y2540
X2540Y53340
T8
X83820Y92710
X83820Y90170
X83820Y87630
X62230Y92710
X62230Y90170
X62230Y87630
T9
X69850Y35560
X67310Y35560
X69850Y27940
X67310Y27940
X68580Y8890
X64770Y35560
X62230Y62230
X67310Y62230
X62230Y59690
X67310Y59690
X64770Y27940
X62230Y27940
X68580Y11430
X57150Y21590
X59690Y21590
X71120Y49530
X68580Y49530
X68580Y57150
X71120Y57150
X62230Y35560
X57150Y72390
X57150Y77470
X57150Y85090
X57150Y80010
T10
X69850Y16510
X69850Y19050
X69850Y21590
T11
X73660Y19050
X73841Y26745
X59957Y36830
X48641Y19050
X73660Y21590
X59690Y27940
X45720Y7620
X73660Y24130
X48184Y39370
X72390Y31750
X58420Y41459
X55880Y44450
X74734Y28136
X46956Y15274
X66040Y45720
X22860Y38100
X19050Y38100
X81280Y15240
X19050Y24130
X73660Y16510
X48260Y11430
T12
X57170Y16510
X59670Y16510
T13
X81280Y60960
X83820Y3810
X73660Y20320
X87630Y20320
X76200Y35560
X73660Y41910
X82550Y34290
X81280Y25400
X71120Y25400
X63500Y24130
X64770Y20320
X43180Y17780
X5080Y34290
X22860Y30480
X25400Y44450
X10160Y15240
X17780Y21590
X40640Y58420
X53340Y31750
X19050Y33020
X72390Y34290
X53340Y39370
X62230Y33020
X62230Y30480
X12700Y22860
X44450Y46990
M30